<?xml version="1.0" encoding="iso-8859-1"?>
<!-- Uploaded to: SVG Repo, www.svgrepo.com, Generator: SVG Repo Mixer Tools -->
<svg height="800px" width="800px" version="1.1" id="Layer_1" xmlns="http://www.w3.org/2000/svg" xmlns:xlink="http://www.w3.org/1999/xlink" 
	 viewBox="0 0 512 512" xml:space="preserve">
<g>
	<path style="fill:#D8D8DA;" d="M451.048,176.762c0-67.327-54.579-121.905-121.905-121.905s-121.905,54.578-121.905,121.905
		s54.578,121.905,121.905,121.905h121.905c33.663,0,60.952-27.29,60.952-60.952S484.71,176.762,451.048,176.762z"/>
	<path style="fill:#D8D8DA;" d="M396.19,298.667c0-87.524-70.952-158.476-158.476-158.476S79.238,211.143,79.238,298.667
		C35.477,298.667,0,334.143,0,377.905s35.477,79.238,79.238,79.238H396.19c43.761,0,79.238-35.477,79.238-79.238
		S439.952,298.667,396.19,298.667z"/>
</g>
<path style="fill:#C5C5CA;" d="M396.19,298.667c0-87.524-70.952-158.476-158.476-158.476v316.952H396.19
	c43.761,0,79.238-35.477,79.238-79.238S439.952,298.667,396.19,298.667z"/>
</svg>